<svg xmlns="http://www.w3.org/2000/svg" xmlns:xlink="http://www.w3.org/1999/xlink" viewBox="0 0 1922.28 1387.89"><defs><linearGradient id="Áåçûìÿííûé_ãðàäèåíò_8" x1="1352.12" y1="404.03" x2="1642.87" y2="404.03" gradientUnits="userSpaceOnUse"><stop offset="0" stop-color="#f9795a"/><stop offset="1" stop-color="#eb3668"/></linearGradient><linearGradient id="Áåçûìÿííûé_ãðàäèåíò_8-2" x1="1058.6" y1="178.13" x2="1504.26" y2="178.13" xlink:href="#Áåçûìÿííûé_ãðàäèåíò_8"/></defs><g id="Layer_2" data-name="Layer 2"><g id="_Layer_" data-name="&lt;Layer&gt;"><path d="M607.6,229.74s-106.68-5.22-50.09,319.94c0,0,38.08,110.38-10,181.52h707.54V229.74Z" fill="#b1c9f6"/><path d="M461.24,1077.93s-49.43-57.66-3.05-94.29c0,0,33.88-20.51,61.51-18.85,0,0-39.15,65.64-26.48,72.17s38.34-76.29,38.34-76.29,77.1-7.47,101.9,4.45c0,0-65.91,53.94-52,57.15s85.07-49.73,85.07-49.73,71.76,12.21,67.94,56-28.56,57.29-39.42,56.12-74.44-25.43-75.82-16.52,36.88,38,63.67,39.36c0,0-50.59,55.79-84.21,39.69s-36.49-41.63-57.45-51.2-38.85-9.55-30.2.22,46.59,19.25,58.57,40.45,22.74,35.5-12,30.26-91.33-30.68-93.82-59.83Z" fill="#1b2251"/><path d="M699.18,1029.71s-194.9-7.51-237.94,48.22c0,0-9.52,28.51-38.81,54.47l-4.56,12.44s33.77-35.61,45.85-37.76C463.72,1107.08,444.83,1038,699.18,1029.71Z" fill="#1b2251"/><path d="M422.43,1132.4s-41.83,30.94-44.74,86.22l7.6.68s13.36-57.16,37.51-79.51S422.43,1132.4,422.43,1132.4Z" fill="#1b2251"/><path d="M288.42,1005.41s78.63-44,41.93-103.79c0,0-29.35-36.7-60.8-46.13,0,0,16.77,89.11,0,91.21S258,846.05,258,846.05s-82.82-39.84-115.32-36.69c0,0,51.37,87,34.6,84.92s-74.44-90.16-74.44-90.16S17.93,788.39,4.3,838.71s8.39,75.49,21,78.64,93.31,2.09,91.21,12.58-56.61,27.25-87,17.82c0,0,33.55,82.82,77.58,78.63s57.67-31.45,84.93-33.55,47.17,5.24,33.54,12.58-59.76,2.41-81.77,21.12-39.84,30.25,1,38.64,114.27,3.15,129-28.31Z" fill="#1b2251"/><path d="M43.09,854.44s220.17,71.29,245.33,151c0,0-1.05,35.65,21,76.54v15.72s-23.07-53.47-35.65-60.81C273.74,1036.86,323,967.67,43.09,854.44Z" fill="#1b2251"/><path d="M309.39,1082s33.95,51.55,14.59,114.32l-8.73-2.35s8.48-69.13-9.29-103.9S309.39,1082,309.39,1082Z" fill="#1b2251"/><path d="M413.51,944.68s-103.65-58-55.28-136.81c0,0,38.7-48.37,80.16-60.81,0,0-22.11,117.47,0,120.23s15.2-132.67,15.2-132.67,109.18-52.51,152-48.37c0,0-67.72,114.71-45.61,111.94s98.12-118.85,98.12-118.85S770.07,658.61,788,725s-11,99.5-27.64,103.65-123,2.76-120.23,16.58,74.63,35.93,114.7,23.49c0,0-44.22,109.18-102.26,103.65s-76-41.46-111.94-44.22-62.19,6.91-44.23,16.58,78.77,3.17,107.8,27.85,52.51,39.87-1.38,50.93-150.64,4.14-170-37.32Z" fill="#242e6c"/><path d="M736.9,745.68s-290.22,94-323.39,199c0,0,1.38,47-27.64,100.89v20.73s30.41-70.48,47-80.16C432.86,986.14,367.91,894.93,736.9,745.68Z" fill="#1b2251"/><path d="M385.87,1045.57s-44.75,68-19.24,150.7l11.52-3.1s-11.18-91.12,12.23-137S385.87,1045.57,385.87,1045.57Z" fill="#1b2251"/><path d="M410,1375.67c112.13,0,203-90.9,203-203H207C207,1284.77,297.89,1375.67,410,1375.67Z" fill="#7f22ba"/><path d="M460,1374.12a203.79,203.79,0,0,1-25.22,1.55c-112.13,0-203-90.9-203-203h50.44C282.17,1276.23,359.75,1361.7,460,1374.12Z" fill="#efecea"/><path d="M615.86,1386H204.18a25,25,0,0,1,25-25H590.81a25,25,0,0,1,25.05,25Z" fill="#7f22ba"/><rect x="200.31" y="1172.64" width="417.36" height="6.23" fill="#7f22ba"/><path d="M1363.74,397.85s-35.57-67.12,17.72-92.67c0,0,37.56-12.57,64.14-4.89,0,0-52.59,55.45-41.67,64.6s54.15-66,54.15-66,76.86,9.63,98.44,26.71c0,0-76.14,38.15-63.3,44.33s93.91-29.84,93.91-29.84,67.33,27.66,54,69.53-40.43,49.62-50.78,46.1-67-41.15-70.34-32.76,27.64,45.17,53.48,52.38c0,0-61.6,43.32-90.87,20.24S1456.14,447,1437.8,433s-35.81-17.85-29.51-6.42,41.22,29,48.26,52.32,14.4,39.62-18.39,26.88-82.37-50-78.4-79Z" fill="url(#Áåçûìÿííûé_ãðàäèåíò_8)"/><path d="M1606.46,403s-188.5-50.11-242.72-5.17c0,0-15.54,25.72-49.82,44.62l-7.18,11.13s40.76-27.32,53-26.77C1359.76,426.83,1356.48,355.31,1606.46,403Z" fill="#eb3668"/><path d="M1313.92,442.47s-47.6,21-62.57,74.29l7.26,2.33s25.58-52.83,54.05-69.34S1313.92,442.47,1313.92,442.47Z" fill="#dfdcf7"/><path d="M1129.55,276.8s-105.33-54.93-59.32-135.11c0,0,37.23-49.5,78.31-63.17,0,0-18.61,118.08,3.57,120.18s11.25-133.06,11.25-133.06,107.57-55.75,150.51-52.88c0,0-64.27,116.67-42.25,113.25S1366.16,4.29,1366.16,4.29s111.27-24,131.21,41.72-8.09,99.79-24.55,104.43-122.86,6.42-119.68,20.15,75.66,33.7,115.35,20.07c0,0-41,110.45-99.13,106.65s-77.22-39.18-113.21-40.87-62,8.76-43.71,17.89,78.83.82,108.57,24.62,53.68,38.3.14,50.95-150.45,8.63-171-32.24Z" fill="url(#Áåçûìÿííûé_ãðàäèåíò_8-2)"/><path d="M1446.87,68.25S1159.58,170.83,1129.55,276.8c0,0,2.78,46.93-24.62,101.66l.62,20.72s28.29-71.35,44.58-81.52C1150.13,317.66,1082.49,228.43,1446.87,68.25Z" fill="#eb3668"/><path d="M1104.93,378.46s-42.71,69.27-14.75,151.21l11.42-3.44s-13.88-90.75,8.16-137.26S1104.93,378.46,1104.93,378.46Z" fill="#ecebfc"/><rect x="652.47" y="422.2" width="738.69" height="963.35" fill="#dfdcf7"/><rect x="676.62" y="422.2" width="726.27" height="963.35" fill="#242e6c"/><path d="M1915,1387H1768.65c-7.84-6.65,5.43-21.76,19.29-22.77,6-.46,13.64.8,22.34,2.64,2-26.75,13.51-147,56.86-142.17,48.74,5.41,0,53-13.78,81.11-10.2,20.85-21,50.75-25.89,64.86,4,.86,8,1.7,12.24,2.47,6.46-19.84,30.49-86.55,61.06-82.67,35.89,4.56,21.46,31.3-4,47.18-18.66,11.68-41.57,28.27-52.46,36.29a155.7,155.7,0,0,0,28.62,2.3C1898,1375.59,1910.26,1383,1915,1387Z" fill="#242e6c"/><path d="M1402.9,422.19H676.62c4-54.92-2-94.8-11.74-123.48-18.62-55.15-50.72-69-50.72-69H1299.1c58.46,0,103.79,35.22,116.13,82,.46,1.76.89,3.51,1.26,5.26C1428.2,370.45,1403.38,421.21,1402.9,422.19Z" fill="#ecebfc"/><path d="M1402.9,422.19H676.62c4-54.92-2-94.8-11.74-123.48,74.22,13.59,258,42.55,454.81,37.67,127.3-3.16,227.89-11.67,296.8-19.43C1428.2,370.45,1403.38,421.21,1402.9,422.19Z" fill="#dfdcf7"/><rect x="818.7" y="626.27" width="399.53" height="18.07" rx="7.66" fill="#fd8857"/><rect x="818.7" y="656.67" width="248.95" height="18.07" rx="6.04" fill="#fd8857"/><path d="M781.6,671.81v-36.9h-4.87q-4.43,0-4.43-3.69c0-1.77,1.16-3,3.47-3.76a25.4,25.4,0,0,1,5.65-.89q3.87-.3,6.23-.3t2.88.93c.4.61.59,2.17.59,4.68v39.93h5q4.88,0,4.87,4.21,0,4.43-4.87,4.43H775.92a5.53,5.53,0,0,1-3.58-1.15,3.86,3.86,0,0,1-1.44-3.21q0-4.27,4.94-4.28Z" fill="#eb3668"/><rect x="818.7" y="816.53" width="399.53" height="18.07" rx="7.66" fill="#fd8857"/><rect x="818.7" y="846.93" width="248.95" height="18.07" rx="6.04" fill="#fd8857"/><path d="M801.77,861.31c0,2.46-1.71,3.69-5.15,3.69H775.23q-4.63,0-4.63-3.72a4.68,4.68,0,0,1,1.24-2.74c1.21-1.39,3-3.48,5.34-6.26q5.36-6.72,8.94-11.61,1.25-1.63,3.52-5a12,12,0,0,0,1.89-5.61,5.77,5.77,0,0,0-1.63-4.21,5.6,5.6,0,0,0-4.17-1.66,6.4,6.4,0,0,0-4.31,1.57,7.47,7.47,0,0,0-1.95,3.91,41.77,41.77,0,0,1-1.18,4.3,3.29,3.29,0,0,1-3.19,2.09,3.67,3.67,0,0,1-3.07-1.43,4.94,4.94,0,0,1-1-3.26,15.83,15.83,0,0,1,.72-4.64,13.91,13.91,0,0,1,5.54-7.69,16.08,16.08,0,0,1,9.2-2.55,14.22,14.22,0,0,1,9.91,3.6,12.56,12.56,0,0,1,4.11,9.67,16.82,16.82,0,0,1-2.94,9q-1.62,2.55-6.71,9-2.61,3.33-8.22,9.67h14.09Q801.78,857.5,801.77,861.31Z" fill="#eb3668"/><rect x="818.7" y="975.25" width="399.53" height="18.07" rx="7.66" fill="#fd8857"/><rect x="818.7" y="1005.64" width="248.95" height="18.07" rx="6.04" fill="#fd8857"/><path d="M801.77,1008.57a14,14,0,0,1-4.86,11.14,17.19,17.19,0,0,1-11.67,4,16.32,16.32,0,0,1-9.33-2.6q-6.13-4.14-6.14-9.94a4.16,4.16,0,0,1,1.07-2.86,3.49,3.49,0,0,1,2.73-1.2c1.16,0,2.25.78,3.27,2.33a49.36,49.36,0,0,0,2.87,4.27,7.43,7.43,0,0,0,5.66,2.33c3.11,0,5.34-1.15,6.67-3.47a9.23,9.23,0,0,0,.93-4.4q0-6.52-7.66-7.26-4.34-.4-4.34-3.67a3.49,3.49,0,0,1,2.52-3.4q4.69-1.74,4.77-1.8,2.5-1.66,2.51-5.8a5.2,5.2,0,0,0-1.46-3.9,5.33,5.33,0,0,0-3.92-1.43,7.19,7.19,0,0,0-4.78,1.46,9.53,9.53,0,0,0-2.46,4.34,3,3,0,0,1-3.06,2.33,3.13,3.13,0,0,1-2.62-1.4,5,5,0,0,1-1-3.07,8.6,8.6,0,0,1,1.13-4.13,12.82,12.82,0,0,1,5.74-5.4,16.76,16.76,0,0,1,7.73-1.8,13.45,13.45,0,0,1,9.43,3.43,11.65,11.65,0,0,1,3.77,9,12.37,12.37,0,0,1-5.6,10.66Q801.77,999.64,801.77,1008.57Z" fill="#eb3668"/><path d="M926.73,465.2h239a8,8,0,0,1,8,8v5.08a8,8,0,0,1-8,8h-239a8,8,0,0,1-8-8v-5.08A8,8,0,0,1,926.73,465.2Z" fill="#fd8857"/><path d="M864.28,497.56h363.87a9.75,9.75,0,0,1,9.75,9.75v1.48a9.76,9.76,0,0,1-9.76,9.76H864.28a9.76,9.76,0,0,1-9.76-9.76v-1.48a9.75,9.75,0,0,1,9.75-9.75Z" fill="#fd8857"/><path d="M1018.07,741.76c-79.12,0-154.2-9.93-210.17-24.12-56.55-14.34-87-37.77-87-58.55,0-18.84,24.82-36.17,71.78-50.11h0c-45,13.36-69.07,33-69.07,50.11,0,19,31.19,37.81,85.59,51.6,55.78,14.14,129.95,21.93,208.87,21.93s153.09-7.79,208.87-21.93c54.4-13.79,85.59-32.6,85.59-51.6,0-20.13-32.85-45.14-85.73-65.28-60.14-22.9-134.26-31.39-208.73-31.39-139.8,0-197.35,16.32-247.28,36.77h0c50.14-20.54,107-43.82,247.28-43.82,74.77,0,149.21,12.67,209.63,35.67,54,20.57,87.55,46.64,87.55,68.05,0,20.78-31.15,40.12-87.69,54.46C1171.58,727.74,1097.19,741.76,1018.07,741.76Z" fill="#242e6c"/><path d="M1498.52,931s-2.6,25.33-5.46,30.12-15,20.1-20.22,23.1S1476,964,1475,959.53s-4.27,8.23-6.55,8.53-1.7-11.17-1.78-15.34,11.12-14.48,15.07-23.36S1498.52,931,1498.52,931Z" fill="#ff9792"/><path d="M1187.34,697.38l-5.82-11s2.89-19.57-21.63-31.95c0,0-9-3.65-14,3.66-4.66,6.73,8.88,5.51,8.16,17s4.74,18.28,12.35,22l6.29,7.29Z" fill="#ff9792"/><path d="M1419.1,671.12S1398,774.49,1282.15,808.26C1246,818.8,1163.78,699.7,1163.78,699.7s2.89-11,21-8.46c0,0,80,53,90.1,58.74,8.94,5.1,67.73-65.65,94.53-77.06S1419.1,671.12,1419.1,671.12Z" fill="#7f22ba"/><rect x="1152.06" y="615.32" width="21.65" height="108.88" transform="translate(324.35 1717.49) rotate(-81.27)" fill="#efecea"/><polygon points="1084.05 657.65 1107.43 672.19 1110.71 650.8 1084.05 657.65" fill="#eb3668"/><path d="M1229.76,676.35l-1,6.76a7.62,7.62,0,0,1-8.69,6.38l-5-.77,3.29-21.39,5.41.83A7.19,7.19,0,0,1,1229.76,676.35Z" fill="#eb3668"/><path d="M1557.46,1320.9s14.37,13.12,11.57,22.45-15.78,15.53-17.53,26.93-8.77,17.61-15.08,17.61h-30.09s-4.65-8,6.57-10.44,15.45-15.8,14.75-28.23,1-29,1-29l23.85-5.52Z" fill="#eb3668"/><path d="M1381.08,1354.84s2.58,29.86-3.74,33l-80.77-.17s0-9.32,13-11.39,35.77-9.67,39.62-26.59S1381.08,1354.84,1381.08,1354.84Z" fill="#eb3668"/><path d="M1312.88,933s4.26,52.34,9.26,115.26c6.81,85.47,15,190.45,15.81,210.34,1.4,34.53,7,89.77,7,89.77s13.32,13.13,40,7.6c0,0,23.75-78.86,30.54-162.3.1-1.36.21-2.74.31-4.12,6.31-84.94,16.13-263.8,16.13-263.8Z" fill="#f9795a"/><path d="M1312.88,933s4.26,52.34,9.26,115.26l93.34,145.41c.1-1.36.21-2.74.31-4.12,6.31-84.94,16.13-263.8,16.13-263.8Z" fill="#f24b46"/><path d="M1332.33,939.26s76.8,189.56,127.29,278.64,66.28,113.94,66.28,113.94,28.93-11.39,31.56-19.16c0,0-19.31-172-53.13-213.9-19.11-23.69-41.55-94.78-42.6-119.64s-6.84-74.06-6.84-74.06Z" fill="#f9795a"/><path d="M1433.37,647.13s-52,25.08-81.91,15.77a70.6,70.6,0,0,1,20.28-16.22c-1-6-1.85-11.23-2.31-15.65a144.33,144.33,0,0,1-1.27-16l20-15.77,19-15.09C1405.72,626.6,1433.37,647.13,1433.37,647.13Z" fill="#ff9792"/><path d="M1460.76,914.79c.11,3.17-6.69,6.8-9.68,8.16-22.24,9.76-43,16.57-66.48,18.84-27.77,2.83-60.6-3.41-71.89-3.18a4.68,4.68,0,0,1-3.11-1.25c-.81-.57-1.38-34-.81-76.12,0-1.7,0-3.4.12-5.1v-.57c.23-16.45.8-33.69,1.61-50.94,1.61-37.89,4.61-74.42,9.68-94.61,6.1-23.82,19.93-39.59,32.49-51l10.37-9.08a49.78,49.78,0,0,0,32.26-3.85c12-5.79,24.88-12,27-10.44,15.66,11.46,26.26,37.21,31.91,70.11a364.91,364.91,0,0,1,4.72,62.39c0,8.17-.23,16.57-.69,24.85-2.76,44.92,0,83.94,1.61,106.52C1460.3,906.05,1460.64,911.15,1460.76,914.79Z" fill="#9e30ca"/><path d="M1459.83,912.72c-181.95-.36-33.56-197.44-33.56-197.44l29.48-9.57a573.67,573.67,0,0,1,3.42,66.66c0,8.73-.17,17.7-.5,26.54C1456.67,846.91,1458.67,888.6,1459.83,912.72Z" fill="#7f22ba"/><path d="M1407.57,600.4s-13.14,23.93-38.14,30.63a144.33,144.33,0,0,1-1.27-16l20-15.77Z" fill="#ff7d78"/><path d="M1359,614.34s49.57,8.11,54.22-22.37,14.19-50-17.26-56.41-39.39,4.25-43.46,14.05S1346.25,611.44,1359,614.34Z" fill="#ff9792"/><path d="M1431.26,531.91c.45-.51,1.49-.93,3.8-1.06a9.42,9.42,0,0,0-4.32-1.21c-.48-3.21-2.19-8.9-7.72-10.28a6.92,6.92,0,0,1,3.36,5c-6.4-6.58-20.12-11.36-58.11-8.36-50.06,4-33.56,36-27.08,39.82s22.8-6.65,34.87-5.69,14.37,18.4,18.47,20.8,2.49-1.84,8-4.35,6.07,6.68,4.47,12.65,6,13.85,6,13.85l7.7-8.29c7.7-8.28,15-43.39,11.45-50.87C1431.88,533.25,1431.58,532.58,1431.26,531.91Z" fill="#f24b46"/><path d="M1422.25,635.35s31.37,14.85,46.4,37.68c23.33,35.42,50.37,164.49,50.86,176.44s-19.73,96.33-19.73,96.33-20.52-1.35-25.81-11.71c0,0,4.1-86.7,1.5-92.27s-85.55-116.3-76.23-139.93S1422.25,635.35,1422.25,635.35Z" fill="#9e30ca"/><path d="M1181.41,685.88s1.71-6.74-3-9.77-9-11.26-11-10.15c-4.08,2.32,2.24,9.5,1.08,18.46C1168.18,687.56,1175.48,695.79,1181.41,685.88Z" fill="#ff9792"/><path d="M1238.22,1176.05H791.62a5.44,5.44,0,0,1-5.43-5.43h0a5.45,5.45,0,0,1,5.43-5.44h446.6a5.45,5.45,0,0,1,5.43,5.44h0A5.44,5.44,0,0,1,1238.22,1176.05Z" fill="#fd8857"/><path d="M1238.22,1197.81H791.62a5.45,5.45,0,0,1-5.43-5.44h0a5.44,5.44,0,0,1,5.43-5.43h446.6a5.44,5.44,0,0,1,5.43,5.43h0A5.45,5.45,0,0,1,1238.22,1197.81Z" fill="#fd8857"/><path d="M1238.22,1221.91H791.62a5.44,5.44,0,0,1-5.43-5.43h0a5.45,5.45,0,0,1,5.43-5.44h446.6a5.45,5.45,0,0,1,5.43,5.44h0A5.44,5.44,0,0,1,1238.22,1221.91Z" fill="#fd8857"/><path d="M1179.23,1246H791.62a5.44,5.44,0,0,1-5.43-5.43h0a5.45,5.45,0,0,1,5.43-5.44h387.61a5.45,5.45,0,0,1,5.43,5.44h0A5.44,5.44,0,0,1,1179.23,1246Z" fill="#fd8857"/></g></g></svg>